<svg width="24" height="24" viewBox="0 0 24 24" fill="none" xmlns="http://www.w3.org/2000/svg">
<path fill-rule="evenodd" clip-rule="evenodd" d="M6.80566 8.94446C6.80566 8.53024 7.14145 8.19446 7.55566 8.19446H16.4446C16.8588 8.19446 17.1946 8.53024 17.1946 8.94446C17.1946 9.35867 16.8588 9.69446 16.4446 9.69446H7.55566C7.14145 9.69446 6.80566 9.35867 6.80566 8.94446Z" fill="#505458"/>
<path fill-rule="evenodd" clip-rule="evenodd" d="M6.80566 12C6.80566 11.5858 7.14145 11.25 7.55566 11.25H13.1223C13.5365 11.25 13.8723 11.5858 13.8723 12C13.8723 12.4142 13.5365 12.75 13.1223 12.75H7.55566C7.14145 12.75 6.80566 12.4142 6.80566 12Z" fill="#505458"/>
<path fill-rule="evenodd" clip-rule="evenodd" d="M6.80566 15.0555C6.80566 14.6413 7.14145 14.3055 7.55566 14.3055H14.6668C15.081 14.3055 15.4168 14.6413 15.4168 15.0555C15.4168 15.4698 15.081 15.8055 14.6668 15.8055H7.55566C7.14145 15.8055 6.80566 15.4698 6.80566 15.0555Z" fill="#505458"/>
<path fill-rule="evenodd" clip-rule="evenodd" d="M4.5 5.5V18.5H19.5V5.5H4.5ZM3 5.18465C3 4.51237 3.5537 4 4.19595 4H19.8041C20.4463 4 21 4.51237 21 5.18465V18.8153C21 19.4876 20.4463 20 19.8041 20H4.19595C3.5537 20 3 19.4876 3 18.8153V5.18465Z" fill="#505458"/>
</svg>
