<svg width="24" height="24" viewBox="0 0 24 24" fill="none" xmlns="http://www.w3.org/2000/svg">
<g clip-path="url(#clip0_6869_3793)">
<path d="M12.0002 20.25C12.0002 20.25 3.74024 13.93 3.74024 8.25001C3.74024 8.16001 3.74024 8.09001 3.74024 8.00001C3.70605 7.45407 3.7842 6.90693 3.96986 6.39239C4.15551 5.87786 4.44472 5.40687 4.81962 5.00854C5.19452 4.61021 5.64713 4.29301 6.14948 4.07654C6.65183 3.86007 7.19324 3.74894 7.74024 3.75001C10.3402 3.84001 11.4002 6.07001 11.9802 7.75001C12.5602 6.09001 13.6202 3.86001 16.2202 3.75001C16.7672 3.74894 17.3087 3.86007 17.811 4.07654C18.3134 4.29301 18.766 4.61021 19.1409 5.00854C19.5158 5.40687 19.805 5.87786 19.9906 6.39239C20.1763 6.90693 20.2544 7.45407 20.2202 8.00001C20.2202 8.09001 20.2202 8.16001 20.2202 8.25001C20.2202 13.93 11.9602 20.25 11.9602 20.25" stroke="#505458" stroke-width="1.5" stroke-linecap="round" stroke-linejoin="round"/>
</g>
<defs>
<clipPath id="clip0_6869_3793">
<rect width="18" height="18" fill="white" transform="translate(3 3)"/>
</clipPath>
</defs>
</svg>
