<svg width="24" height="24" viewBox="0 0 24 24" fill="none" xmlns="http://www.w3.org/2000/svg">
<path fill-rule="evenodd" clip-rule="evenodd" d="M4.19595 4C3.5537 4 3 4.51237 3 5.18465V18.8153C3 19.4876 3.5537 20 4.19595 20H19.8041C20.4463 20 21 19.4876 21 18.8153V5.18465C21 4.51237 20.4463 4 19.8041 4H4.19595ZM7.55566 8.19446C7.14145 8.19446 6.80566 8.53024 6.80566 8.94446C6.80566 9.35867 7.14145 9.69446 7.55566 9.69446H16.4446C16.8588 9.69446 17.1946 9.35867 17.1946 8.94446C17.1946 8.53024 16.8588 8.19446 16.4446 8.19446H7.55566ZM6.80566 12C6.80566 11.5858 7.14145 11.25 7.55566 11.25H13.1223C13.5365 11.25 13.8723 11.5858 13.8723 12C13.8723 12.4142 13.5365 12.75 13.1223 12.75H7.55566C7.14145 12.75 6.80566 12.4142 6.80566 12ZM7.55566 14.3055C7.14145 14.3055 6.80566 14.6413 6.80566 15.0555C6.80566 15.4698 7.14145 15.8055 7.55566 15.8055H14.6668C15.081 15.8055 15.4168 15.4698 15.4168 15.0555C15.4168 14.6413 15.081 14.3055 14.6668 14.3055H7.55566Z" fill="#505458"/>
</svg>
